<svg width="282" height="89" viewBox="0 0 282 89" fill="none" xmlns="http://www.w3.org/2000/svg">
<path d="M39.019 24.9166V37.9988H0.263104V24.9166H39.019ZM9.13444 87.7109V20.3787C9.13444 15.8272 10.0202 12.0525 11.7918 9.05449C13.5905 6.05649 16.0435 3.808 19.1505 2.309C22.2575 0.810004 25.7869 0.0605058 29.7388 0.0605058C32.4098 0.0605058 34.849 0.264916 37.0567 0.673737C39.2915 1.08255 40.9541 1.45049 42.0442 1.77754L38.9372 14.8597C38.2559 14.6417 37.411 14.4372 36.4026 14.2465C35.4214 14.0557 34.413 13.9603 33.3773 13.9603C30.8154 13.9603 29.0302 14.5599 28.0218 15.7591C27.0134 16.931 26.5092 18.5799 26.5092 20.7058V87.7109H9.13444ZM65.3162 88.8965C61.3097 88.8965 57.7394 88.2015 54.6051 86.8115C51.4709 85.3943 48.9907 83.3093 47.1647 80.5566C45.3659 77.7767 44.4665 74.3154 44.4665 70.1727C44.4665 66.6841 45.107 63.7542 46.3879 61.3831C47.6689 59.012 49.4132 57.1042 51.6208 55.6597C53.8284 54.2152 56.3358 53.125 59.143 52.3891C61.9775 51.6533 64.9482 51.1354 68.0552 50.8356C71.7073 50.4541 74.6508 50.0997 76.8857 49.7727C79.1206 49.4184 80.7422 48.9005 81.7506 48.2192C82.759 47.5378 83.2632 46.5294 83.2632 45.1939V44.9486C83.2632 42.3595 82.4456 40.3563 80.8103 38.939C79.2023 37.5218 76.9129 36.8132 73.9422 36.8132C70.8079 36.8132 68.3141 37.5082 66.4608 38.8982C64.6075 40.2609 63.3811 41.9779 62.7815 44.0493L46.6741 42.741C47.4917 38.9254 49.0997 35.6276 51.4981 32.8477C53.8965 30.0404 56.9899 27.8873 60.7783 26.3883C64.5939 24.8621 69.0091 24.099 74.024 24.099C77.5125 24.099 80.8512 24.5078 84.04 25.3254C87.256 26.1431 90.1041 27.4104 92.5843 29.1274C95.0917 30.8445 97.0676 33.0521 98.5121 35.7503C99.9566 38.4212 100.679 41.6236 100.679 45.3575V87.7109H84.1626V79.0031H83.6721C82.6636 80.9655 81.3145 82.6961 79.6248 84.1951C77.935 85.6669 75.9045 86.8252 73.5334 87.6701C71.1622 88.4877 68.4232 88.8965 65.3162 88.8965ZM70.3037 76.8773C72.8656 76.8773 75.1278 76.3731 77.0901 75.3647C79.0524 74.329 80.5923 72.939 81.7097 71.1947C82.8272 69.4504 83.3859 67.4745 83.3859 65.2669V58.6031C82.8408 58.9575 82.0913 59.2845 81.1374 59.5843C80.2107 59.8569 79.1614 60.1158 77.9895 60.3611C76.8175 60.5791 75.6456 60.7835 74.4737 60.9743C73.3017 61.1378 72.2388 61.2877 71.2849 61.424C69.2408 61.7238 67.4556 62.2007 65.9294 62.8548C64.4031 63.509 63.2176 64.3947 62.3727 65.5122C61.5278 66.6023 61.1053 67.9651 61.1053 69.6003C61.1053 71.9715 61.9639 73.7839 63.6809 75.0376C65.4252 76.2641 67.6328 76.8773 70.3037 76.8773ZM166.437 42.8228L150.493 43.804C150.221 42.4412 149.635 41.2148 148.735 40.1246C147.836 39.0072 146.65 38.1214 145.179 37.4673C143.734 36.7859 142.003 36.4452 139.987 36.4452C137.288 36.4452 135.013 37.0176 133.159 38.1623C131.306 39.2797 130.379 40.7787 130.379 42.6593C130.379 44.1583 130.979 45.4256 132.178 46.4613C133.377 47.4969 135.435 48.3282 138.351 48.9551L149.716 51.2444C155.821 52.4981 160.373 54.515 163.371 57.2949C166.369 60.0749 167.868 63.727 167.868 68.2512C167.868 72.3667 166.655 75.9779 164.23 79.0849C161.831 82.1919 158.533 84.6176 154.336 86.3618C150.166 88.0789 145.356 88.9374 139.905 88.9374C131.592 88.9374 124.969 87.2067 120.036 83.7454C115.131 80.2568 112.255 75.5146 111.41 69.5186L128.54 68.6192C129.058 71.1538 130.311 73.0889 132.301 74.4244C134.29 75.7326 136.839 76.3867 139.946 76.3867C142.998 76.3867 145.451 75.8007 147.304 74.6288C149.185 73.4296 150.139 71.8897 150.166 70.0091C150.139 68.4284 149.471 67.1338 148.163 66.1254C146.855 65.0897 144.838 64.2993 142.112 63.7542L131.238 61.5875C125.106 60.3611 120.541 58.2352 117.543 55.21C114.572 52.1847 113.086 48.3282 113.086 43.6404C113.086 39.6068 114.177 36.1318 116.357 33.2156C118.565 30.2994 121.658 28.0509 125.637 26.4701C129.644 24.8893 134.331 24.099 139.7 24.099C147.632 24.099 153.873 25.7751 158.424 29.1274C163.003 32.4797 165.674 37.0448 166.437 42.8228ZM212.235 24.9166V37.9988H174.419V24.9166H212.235ZM183.004 9.87213H200.42V68.4148C200.42 70.0228 200.665 71.2765 201.156 72.1759C201.646 73.048 202.328 73.6612 203.2 74.0156C204.099 74.3699 205.135 74.547 206.307 74.547C207.125 74.547 207.942 74.4789 208.76 74.3426C209.578 74.1791 210.204 74.0564 210.64 73.9747L213.38 86.9342C212.507 87.2067 211.281 87.5202 209.7 87.8745C208.119 88.256 206.198 88.4877 203.936 88.5695C199.739 88.733 196.059 88.1743 192.898 86.8933C189.764 85.6123 187.324 83.6228 185.58 80.9246C183.836 78.2264 182.977 74.8196 183.004 70.7041V9.87213ZM240.995 51.408V87.7109H223.58V24.9166H240.178V35.9956H240.913C242.303 32.3434 244.634 29.4545 247.904 27.3286C251.175 25.1755 255.14 24.099 259.801 24.099C264.161 24.099 267.963 25.0529 271.207 26.9607C274.45 28.8685 276.971 31.5939 278.77 35.137C280.569 38.6529 281.468 42.8501 281.468 47.7286V87.7109H264.052V50.8356C264.08 46.9927 263.099 43.9947 261.109 41.8416C259.119 39.6613 256.38 38.5711 252.892 38.5711C250.548 38.5711 248.477 39.0753 246.678 40.0837C244.906 41.0921 243.516 42.5639 242.508 44.4989C241.527 46.4068 241.022 48.7098 240.995 51.408Z" fill="#EF8435"/>
</svg>
